<svg xmlns="http://www.w3.org/2000/svg" viewBox="0 0 1200 720">
  <defs><linearGradient id="g" x1="0" y1="0" x2="1" y2="1"><stop stop-color="#07110c"/><stop offset="1" stop-color="#050505"/></linearGradient></defs>
  <rect width="1200" height="720" rx="30" fill="url(#g)"/>
  <rect x="34" y="34" width="1132" height="58" rx="18" fill="#101713" stroke="#2B8C56" opacity=".9"/>
  <circle cx="76" cy="63" r="14" fill="#D9C27A"/><rect x="106" y="53" width="190" height="20" rx="10" fill="#F8F3D6" opacity=".8"/>
  <rect x="48" y="126" width="320" height="520" rx="24" fill="#111" stroke="#1F5B3B"/>
  <rect x="408" y="126" width="740" height="236" rx="24" fill="#0b120f" stroke="#2B8C56"/>
  <rect x="408" y="400" width="350" height="246" rx="24" fill="#101010" stroke="#D9C27A" opacity=".85"/>
  <rect x="798" y="400" width="350" height="246" rx="24" fill="#101010" stroke="#1F5B3B"/>
  <g fill="#2B8C56" opacity=".8"><circle cx="566" cy="240" r="54"/><circle cx="778" cy="240" r="54"/><circle cx="990" cy="240" r="54"/></g>
  <g fill="#F8F3D6" opacity=".65"><rect x="78" y="170" width="210" height="18" rx="9"/><rect x="78" y="224" width="250" height="14" rx="7"/><rect x="78" y="266" width="180" height="14" rx="7"/><rect x="78" y="308" width="230" height="14" rx="7"/></g>
</svg>
